<?xml version="1.0" encoding="utf-8"?>
<!-- Generator: Adobe Illustrator 16.0.0, SVG Export Plug-In . SVG Version: 6.00 Build 0)  -->
<!DOCTYPE svg PUBLIC "-//W3C//DTD SVG 1.1//EN" "http://www.w3.org/Graphics/SVG/1.1/DTD/svg11.dtd">
<svg version="1.1" id="Layer_1" xmlns="http://www.w3.org/2000/svg" xmlns:xlink="http://www.w3.org/1999/xlink" x="0px" y="0px"
	 width="20px" height="20px" viewBox="0 0 20 20" enable-background="new 0 0 20 20" xml:space="preserve">
<path fill="#EA0530" d="M5.824,19.602c-0.366,0-0.663-0.297-0.663-0.662V1.062c0-0.366,0.297-0.663,0.663-0.663
	s0.663,0.297,0.663,0.663v17.878C6.487,19.305,6.19,19.602,5.824,19.602z"/>
<path fill="#464545" d="M16.249,20H3.751c-0.896,0-1.626-0.729-1.626-1.625V1.625C2.125,0.729,2.854,0,3.751,0h12.498
	c0.896,0,1.626,0.729,1.626,1.625v16.75C17.875,19.271,17.146,20,16.249,20z M3.751,1.297c-0.178,0-0.329,0.15-0.329,0.328v16.75
	c0,0.178,0.151,0.328,0.329,0.328h12.498c0.179,0,0.329-0.15,0.329-0.328V1.625c0-0.178-0.15-0.328-0.329-0.328H3.751z"/>
<path fill="#464545" d="M14.979,4.94H8.832c-0.214,0-0.388-0.173-0.388-0.388V3.79c0-0.214,0.174-0.388,0.388-0.388h6.147
	c0.214,0,0.389,0.173,0.389,0.388v0.762C15.368,4.767,15.193,4.94,14.979,4.94"/>
</svg>
