<?xml version="1.0" encoding="utf-8"?>
<!-- Generator: Adobe Illustrator 16.0.0, SVG Export Plug-In . SVG Version: 6.00 Build 0)  -->
<!DOCTYPE svg PUBLIC "-//W3C//DTD SVG 1.1//EN" "http://www.w3.org/Graphics/SVG/1.1/DTD/svg11.dtd">
<svg version="1.1" id="Layer_1" xmlns="http://www.w3.org/2000/svg" xmlns:xlink="http://www.w3.org/1999/xlink" x="0px" y="0px"
	 width="20px" height="20px" viewBox="0 0 20 20" enable-background="new 0 0 20 20" xml:space="preserve">
<path fill="#FFFFFF" d="M12.527,17.176c0,1.157-1.135,2.096-2.536,2.096c-1.4,0-2.536-0.938-2.536-2.096
	c0-1.158,1.136-2.096,2.536-2.096C11.393,15.08,12.527,16.018,12.527,17.176"/>
<path fill="#FFFFFF" d="M17.182,9.027c0,3.597-3.16,6.513-7.058,6.513c-3.897,0-7.057-2.916-7.057-6.513
	c0-3.598,3.16-6.514,7.057-6.514C14.021,2.513,17.182,5.429,17.182,9.027"/>
<rect x="2.913" y="8.792" fill="#FFFFFF" width="13.974" height="7.587"/>
<path fill="#FF7A00" d="M16.709,12.808H3.555c-0.354,0-0.642-0.288-0.642-0.643s0.288-0.642,0.642-0.642h13.154
	c0.354,0,0.641,0.287,0.641,0.642S17.063,12.808,16.709,12.808"/>
<path fill="#464545" d="M19.223,17.251h-2.086c-0.355,0-0.643-0.288-0.643-0.643s0.287-0.642,0.643-0.642h2.086
	c0.355,0,0.643,0.287,0.643,0.642S19.578,17.251,19.223,17.251"/>
<path fill="#FFFFFF" d="M12,2.337c0,1.105-0.896,2-2,2s-2-0.896-2-2c0-1.104,0.896-2,2-2S12,1.232,12,2.337"/>
<path fill="#464545" d="M12.387,2.136C12.254,0.936,11.234,0,10,0C8.765,0,7.747,0.937,7.614,2.136
	c-3.125,1.01-5.393,3.946-5.393,7.403v6.427H0.776c-0.354,0-0.642,0.288-0.642,0.643s0.288,0.643,0.642,0.643h5.895
	C6.972,18.814,8.35,20,10,20s3.027-1.186,3.328-2.749h3.871c0.355,0,0.643-0.288,0.643-0.643s-0.287-0.643-0.643-0.643H3.505V9.539
	c0-3.582,2.914-6.495,6.495-6.495c3.58,0,6.494,2.913,6.494,6.495v7.07c0,0.354,0.287,0.643,0.643,0.643
	c0.354,0,0.643-0.288,0.643-0.643v-7.07C17.779,6.082,15.512,3.146,12.387,2.136 M10,18.716c-0.938,0-1.734-0.616-2.007-1.465h4.015
	C11.734,18.1,10.938,18.716,10,18.716 M10,1.76c-0.323,0-0.64,0.022-0.953,0.061C9.244,1.499,9.597,1.284,10,1.284
	s0.756,0.215,0.953,0.537C10.64,1.782,10.322,1.76,10,1.76"/>
</svg>
