<?xml version="1.0" encoding="utf-8"?>
<!-- Generator: Adobe Illustrator 16.0.0, SVG Export Plug-In . SVG Version: 6.00 Build 0)  -->
<!DOCTYPE svg PUBLIC "-//W3C//DTD SVG 1.1//EN" "http://www.w3.org/Graphics/SVG/1.1/DTD/svg11.dtd">
<svg version="1.1" id="Layer_1" xmlns="http://www.w3.org/2000/svg" xmlns:xlink="http://www.w3.org/1999/xlink" x="0px" y="0px"
	 width="20px" height="20px" viewBox="0 0 20 20" enable-background="new 0 0 20 20" xml:space="preserve">
<path fill="#464545" d="M11,9.087c-0.43,0-1,0.349-1,0.778v8.687c0,0.428,0.57,0.777,1,0.777c0.428,0,1-0.35,1-0.777V9.865
	C12,9.436,11.428,9.087,11,9.087z"/>
<path fill="#464545" d="M7,12.827c-0.429,0-1,0.35-1,0.778v4.946c0,0.428,0.571,0.777,1,0.777c0.428,0,1-0.35,1-0.777v-4.946
	C8,13.177,7.428,12.827,7,12.827z"/>
<path fill="#EA0530" d="M16,4.729c-0.43,0-1,0.349-1,0.778v13.044c0,0.428,0.57,0.777,1,0.777s1-0.35,1-0.777V5.508
	C17,5.079,16.43,4.729,16,4.729z"/>
<path fill="#464545" d="M19.221,18H2.167C2.09,18,2,17.893,2,17.814V0.763c0-0.425-0.576-0.771-1-0.771c-0.425,0-1,0.346-1,0.771
	v17.051C0,18.745,1.237,20,2.167,20h17.053c0.424,0,0.771-0.574,0.771-1S19.645,18,19.221,18z"/>
<path fill="#464545" d="M2.161,12H1.251c-0.425,0-0.771,0.574-0.771,1s0.346,1,0.771,1h0.909c0.425,0,0.771-0.574,0.771-1
	S2.586,12,2.161,12z"/>
<path fill="#464545" d="M2.161,7H1.251C0.827,7,0.48,7.575,0.48,8c0,0.424,0.346,1,0.771,1h0.909c0.425,0,0.771-0.576,0.771-1
	C2.932,7.575,2.586,7,2.161,7z"/>
<path fill="#464545" d="M2.161,1H1.251C0.827,1,0.48,1.576,0.48,2c0,0.425,0.346,1,0.771,1h0.909c0.425,0,0.771-0.575,0.771-1
	C2.932,1.576,2.586,1,2.161,1z"/>
</svg>
