<?xml version="1.0" encoding="utf-8"?>
<!-- Generator: Adobe Illustrator 16.0.0, SVG Export Plug-In . SVG Version: 6.00 Build 0)  -->
<!DOCTYPE svg PUBLIC "-//W3C//DTD SVG 1.1//EN" "http://www.w3.org/Graphics/SVG/1.1/DTD/svg11.dtd">
<svg version="1.1" id="Layer_1" xmlns="http://www.w3.org/2000/svg" xmlns:xlink="http://www.w3.org/1999/xlink" x="0px" y="0px"
	 width="20px" height="20px" viewBox="0 0 20 20" enable-background="new 0 0 20 20" xml:space="preserve">
<path fill="#464545" d="M16.084,3.337l-2.45-2.492C13.16,0.363,12.294,0,11.619,0L1.763,0C0.9,0,0.198,0.702,0.198,1.565v16.869
	C0.198,19.298,0.9,20,1.763,20l13.582-0.001c0.863,0,1.565-0.702,1.565-1.565V5.355C16.91,4.684,16.555,3.816,16.084,3.337z
	 M15.019,4.123h-2.088V1.999L15.019,4.123z M15.6,18.434c0,0.139-0.117,0.255-0.255,0.255L1.763,18.689
	c-0.138,0-0.254-0.117-0.254-0.255V1.565c0-0.138,0.117-0.254,0.254-0.254l9.856,0c0.146,0,0.329,0.045,0.509,0.114v3.1
	c0,0.221,0.18,0.401,0.401,0.401h2.989c0.05,0.154,0.081,0.306,0.081,0.43V18.434z"/>
<path fill="#464545" d="M9.193,16.008H2.846c-0.274,0-0.496-0.223-0.496-0.496c0-0.274,0.222-0.496,0.496-0.496h6.348
	c0.274,0,0.496,0.222,0.496,0.496C9.689,15.785,9.467,16.008,9.193,16.008z"/>
<path fill="#464545" d="M9.193,13.728H2.846c-0.274,0-0.496-0.222-0.496-0.495c0-0.274,0.222-0.496,0.496-0.496h6.348
	c0.274,0,0.496,0.222,0.496,0.496C9.689,13.506,9.467,13.728,9.193,13.728z"/>
<path fill="#464545" d="M9.193,11.448H2.846c-0.274,0-0.496-0.222-0.496-0.495c0-0.274,0.222-0.496,0.496-0.496h6.348
	c0.274,0,0.496,0.222,0.496,0.496C9.689,11.227,9.467,11.448,9.193,11.448z"/>
<path fill="#EA0530" d="M11.127,9.681c-0.184,0-0.364-0.088-0.474-0.252c-0.175-0.261-0.105-0.615,0.155-0.791l8.106-5.441
	c0.262-0.176,0.615-0.106,0.791,0.155c0.176,0.262,0.105,0.616-0.155,0.791l-8.105,5.441C11.347,9.649,11.236,9.681,11.127,9.681z"
	/>
<path fill="#EA0530" d="M4.482,9.208H2.656c-0.158,0-0.285-0.127-0.285-0.285V7.097c0-0.158,0.127-0.285,0.285-0.285h1.827
	c0.158,0,0.285,0.127,0.285,0.285v1.827C4.768,9.081,4.64,9.208,4.482,9.208"/>
</svg>
