<?xml version="1.0" encoding="utf-8"?>
<!-- Generator: Adobe Illustrator 16.0.0, SVG Export Plug-In . SVG Version: 6.00 Build 0)  -->
<!DOCTYPE svg PUBLIC "-//W3C//DTD SVG 1.1//EN" "http://www.w3.org/Graphics/SVG/1.1/DTD/svg11.dtd">
<svg version="1.1" id="Layer_1" xmlns="http://www.w3.org/2000/svg" xmlns:xlink="http://www.w3.org/1999/xlink" x="0px" y="0px"
	 width="16px" height="20px" viewBox="0 0 16 20" enable-background="new 0 0 16 20" xml:space="preserve">
<path fill="#FFFFFF" d="M14.264,7.764c-0.408-0.022-0.787,0.105-1.087,0.333c-0.171-0.723-0.775-1.269-1.517-1.308
	c-0.387-0.021-0.746,0.094-1.036,0.298V6.891c0-0.836-0.585-1.567-1.36-1.702C8.813,5.11,8.364,5.222,8.021,5.463V1.654
	C8.021,0.742,7.279,0,6.368,0S4.714,0.742,4.714,1.654v9.484L3.047,9.472c-0.331-0.331-0.786-0.521-1.25-0.521
	c-0.403,0-0.786,0.145-1.077,0.407c-0.341,0.308-0.536,0.729-0.548,1.187c-0.012,0.445,0.159,0.882,0.47,1.2
	c0.145,0.178,1.754,2.167,2.249,3.152c0.76,1.514,1.326,2.434,1.831,2.977c0.046,0.051,1.135,1.248,2.75,1.841
	c0.076,0.028,0.152,0.052,0.229,0.071C7.948,19.851,8.625,20,9.548,20c0.347,0,0.699-0.021,1.047-0.063
	c0.015-0.002,0.032-0.005,0.046-0.009c0.098-0.023,0.453-0.114,0.932-0.274c2.431-0.813,4.139-3.06,4.25-5.587
	c0.003-0.052,0.004-0.1,0.006-0.152V9.488C15.828,8.566,15.141,7.81,14.264,7.764z M15.123,13.62l-0.005,0.414
	c-0.099,2.24-1.613,4.23-3.77,4.952c-0.421,0.141-0.738,0.224-0.858,0.254c-0.313,0.036-0.63,0.056-0.942,0.056
	c-0.841,0-1.448-0.135-1.672-0.193c-0.055-0.014-0.107-0.029-0.161-0.049c-1.438-0.528-2.433-1.612-2.466-1.648
	c-0.002-0.003-0.004-0.005-0.006-0.007c-0.455-0.489-1.002-1.385-1.721-2.817c-0.55-1.097-2.27-3.206-2.343-3.295
	c-0.007-0.009-0.016-0.019-0.024-0.026c-0.186-0.186-0.284-0.433-0.277-0.696c0.007-0.263,0.119-0.505,0.315-0.682
	c0.207-0.187,0.443-0.226,0.605-0.226c0.278,0,0.552,0.114,0.751,0.313l2.269,2.27c0.101,0.101,0.252,0.131,0.384,0.076
	c0.131-0.055,0.217-0.184,0.217-0.325V1.654c0-0.523,0.426-0.949,0.949-0.949s0.949,0.426,0.949,0.949v5.162l0,0v2.759h0.705V6.818
	c0-0.001,0-0.001,0-0.002c0-0.579,0.524-1.037,1.121-0.933C9.585,5.96,9.919,6.393,9.919,6.891v1.55l0,0v1.135h0.705V8.44
	c0-0.523,0.425-0.949,0.948-0.949l0.051,0.002c0.495,0.025,0.897,0.484,0.897,1.021v0.899c0,0.195,0.158,0.353,0.353,0.353
	c0.195,0,0.353-0.157,0.353-0.353c0-0.522,0.426-0.948,0.948-0.948l0.053,0.002c0.494,0.025,0.896,0.483,0.896,1.021V13.62z"/>
</svg>
