<?xml version="1.0" encoding="utf-8"?>
<!-- Generator: Adobe Illustrator 16.0.0, SVG Export Plug-In . SVG Version: 6.00 Build 0)  -->
<!DOCTYPE svg PUBLIC "-//W3C//DTD SVG 1.1//EN" "http://www.w3.org/Graphics/SVG/1.1/DTD/svg11.dtd">
<svg version="1.1" id="Layer_1" xmlns="http://www.w3.org/2000/svg" xmlns:xlink="http://www.w3.org/1999/xlink" x="0px" y="0px"
	 width="20px" height="20px" viewBox="0 0 20 20" enable-background="new 0 0 20 20" xml:space="preserve">
<rect x="4.212" y="1.085" fill="#FFFFFF" width="13.997" height="5.782"/>
<path fill="#EA0530" d="M18.209,7.397H4.212c-0.292,0-0.53-0.237-0.53-0.53V1.085c0-0.292,0.237-0.53,0.53-0.53h13.997
	c0.293,0,0.53,0.238,0.53,0.53v5.782C18.739,7.16,18.502,7.397,18.209,7.397z M4.742,6.337H17.68V1.615H4.742V6.337z"/>
<path fill="#FFFFFF" d="M10.973,5.724C10.438,5.724,10,5.286,10,4.751V4.417c0-0.535-0.438-0.972-0.973-0.972H1.631
	c-0.535,0-0.973,0.438-0.973,0.972v13.395c0,0.535,0.438,0.973,0.973,0.973h16.737c0.535,0,0.973-0.438,0.973-0.973V6.697
	c0-0.535-0.438-0.973-0.973-0.973H10.973z"/>
<path fill="#464545" d="M18.368,19.445H1.631C0.732,19.445,0,18.713,0,17.813V4.417c0-0.899,0.732-1.631,1.631-1.631h7.396
	c0.899,0,1.631,0.731,1.631,1.631v0.334c0,0.17,0.144,0.314,0.314,0.314h7.396c0.9,0,1.632,0.732,1.632,1.631v11.116
	C20,18.713,19.269,19.445,18.368,19.445z M1.631,4.104c-0.17,0-0.314,0.144-0.314,0.314v13.395c0,0.172,0.144,0.314,0.314,0.314
	h16.737c0.171,0,0.314-0.143,0.314-0.314V6.697c0-0.17-0.144-0.314-0.314-0.314h-7.396c-0.899,0-1.631-0.732-1.631-1.631V4.417
	c0-0.17-0.144-0.314-0.314-0.314H1.631z"/>
<path fill="#EA0530" d="M5.69,16.357H3.854c-0.159,0-0.287-0.129-0.287-0.287v-1.836c0-0.158,0.128-0.287,0.287-0.287H5.69
	c0.158,0,0.287,0.129,0.287,0.287v1.836C5.977,16.229,5.849,16.357,5.69,16.357"/>
</svg>
