<?xml version="1.0" encoding="utf-8"?>
<!-- Generator: Adobe Illustrator 16.0.0, SVG Export Plug-In . SVG Version: 6.00 Build 0)  -->
<!DOCTYPE svg PUBLIC "-//W3C//DTD SVG 1.1//EN" "http://www.w3.org/Graphics/SVG/1.1/DTD/svg11.dtd">
<svg version="1.1" id="Layer_1" xmlns="http://www.w3.org/2000/svg" xmlns:xlink="http://www.w3.org/1999/xlink" x="0px" y="0px"
	 width="20px" height="20px" viewBox="0 0 20 20" enable-background="new 0 0 20 20" xml:space="preserve">
<path fill="#464545" d="M18.064,19.732H1.936C0.868,19.732,0,18.864,0,17.798V6.426c0-1.066,0.868-1.935,1.936-1.935h16.129
	C19.132,4.491,20,5.359,20,6.426v11.372C20,18.864,19.132,19.732,18.064,19.732 M1.936,5.609c-0.451,0-0.817,0.366-0.817,0.816
	v11.372c0,0.45,0.366,0.816,0.817,0.816h16.129c0.45,0,0.817-0.366,0.817-0.816V6.426c0-0.45-0.367-0.816-0.817-0.816H1.936z"/>
<path fill="#EA0530" d="M5.51,13.368H3.964c-0.14,0-0.253-0.113-0.253-0.253v-2.007c0-0.139,0.113-0.253,0.253-0.253H5.51
	c0.14,0,0.253,0.114,0.253,0.253v2.007C5.763,13.255,5.649,13.368,5.51,13.368"/>
<path fill="#EA0530" d="M16.036,13.368H14.49c-0.14,0-0.253-0.113-0.253-0.253v-2.007c0-0.139,0.113-0.253,0.253-0.253h1.546
	c0.14,0,0.252,0.114,0.252,0.253v2.007C16.288,13.255,16.176,13.368,16.036,13.368"/>
<path fill="#464545" d="M10,11.798c-3,0-6.001-0.308-8.979-0.922l-0.574-0.118C0.187,10.704,0,10.476,0,10.21V6.586
	c0-1.155,0.939-2.095,2.095-2.095h15.811C19.06,4.491,20,5.431,20,6.586v3.624c0,0.266-0.187,0.494-0.446,0.548l-0.574,0.118
	C16,11.49,13,11.798,10,11.798 M1.118,9.755l0.128,0.026c5.809,1.198,11.699,1.198,17.508,0l0.128-0.026V6.586
	c0-0.538-0.438-0.977-0.977-0.977H2.095c-0.538,0-0.977,0.438-0.977,0.977V9.755z M19.44,10.21h0.002H19.44z"/>
<path fill="#464545" d="M14.237,5.609H5.763c-0.309,0-0.56-0.25-0.56-0.56V4.611c0-2.396,1.948-4.344,4.344-4.344h0.906
	c2.395,0,4.343,1.948,4.343,4.344V5.05C14.796,5.359,14.546,5.609,14.237,5.609 M6.323,4.491h7.353
	c-0.063-1.723-1.484-3.105-3.223-3.105H9.547C7.809,1.386,6.387,2.769,6.323,4.491"/>
</svg>
