<?xml version="1.0" encoding="utf-8"?>
<!-- Generator: Adobe Illustrator 16.0.0, SVG Export Plug-In . SVG Version: 6.00 Build 0)  -->
<!DOCTYPE svg PUBLIC "-//W3C//DTD SVG 1.1//EN" "http://www.w3.org/Graphics/SVG/1.1/DTD/svg11.dtd">
<svg version="1.1" id="Layer_1" xmlns="http://www.w3.org/2000/svg" xmlns:xlink="http://www.w3.org/1999/xlink" x="0px" y="0px"
	 width="100px" height="16px" viewBox="0 0 100 16" enable-background="new 0 0 100 16" xml:space="preserve">
<g>
	<defs>
		<rect id="SVGID_1_" y="0.422" width="100" height="15.156"/>
	</defs>
	<clipPath id="SVGID_2_">
		<use xlink:href="#SVGID_1_"  overflow="visible"/>
	</clipPath>
	<path clip-path="url(#SVGID_2_)" fill="#F47725" d="M80.587,14.352v-0.895h1.793V12.91h-3.571v-0.762h3.431v-0.547l-0.001-0.695
		c0-0.316-0.257-0.574-0.574-0.574h-3.578v0.547h3.371v0.723h-3.43v1.281c0,0.316,0.256,0.574,0.573,0.574h1.204v0.895h-2.177v0.547
		h5.136v-0.547H80.587z"/>
	<path clip-path="url(#SVGID_2_)" fill="#F47725" d="M84.422,13.045h3.684v-0.547h-3.477v-1.621h3.38V10.33h-3.587
		c-0.317,0-0.574,0.258-0.574,0.574v1.566C83.848,12.787,84.104,13.045,84.422,13.045"/>
	<rect x="83.427" y="14.35" clip-path="url(#SVGID_2_)" fill="#F47725" width="5.149" height="0.547"/>
	<path clip-path="url(#SVGID_2_)" fill="#F47725" d="M95.847,13.045h3.685v-0.547h-3.477v-1.621h3.379V10.33h-3.587
		c-0.316,0-0.574,0.258-0.574,0.574v1.566C95.272,12.787,95.53,13.045,95.847,13.045"/>
	<rect x="94.851" y="14.35" clip-path="url(#SVGID_2_)" fill="#F47725" width="5.149" height="0.547"/>
	<polygon clip-path="url(#SVGID_2_)" fill="#F47725" points="92.861,11.916 93.266,11.916 93.266,13.967 93.97,13.967 93.97,10.332 
		93.266,10.332 93.266,11.369 92.861,11.369 92.861,10.332 92.158,10.332 92.158,13.967 92.861,13.967 	"/>
	<path clip-path="url(#SVGID_2_)" fill="#F47725" d="M90.83,14.898v-0.984h-0.781v0.957c0,0.316,0.258,0.574,0.574,0.574h3.462
		v-0.547H90.83z"/>
	<path clip-path="url(#SVGID_2_)" fill="#F47725" d="M91.155,13.457c0.315,0,0.573-0.258,0.573-0.574v-2.551h-0.713v1.037h-1.01
		v-1.037h-0.712v2.551c0,0.316,0.257,0.574,0.573,0.574H91.155z M90.006,11.916h1.01v0.994h-1.01V11.916z"/>
	<path clip-path="url(#SVGID_2_)" fill="#F47725" d="M72.729,13.457h3.082c0.315,0,0.573-0.258,0.573-0.574v-2.551h-0.781v1.025
		h-2.666v-1.025h-0.781v2.551C72.156,13.199,72.414,13.457,72.729,13.457 M75.604,12.91h-2.666v-1.006h2.666V12.91z"/>
	<rect x="71.655" y="14.352" clip-path="url(#SVGID_2_)" fill="#F47725" width="5.172" height="0.547"/>
	<path clip-path="url(#SVGID_2_)" fill="#E31837" d="M58.675,11.545c-0.538-0.25-0.979-0.455-0.979-0.867
		c0-0.313,0.251-0.543,0.749-0.543c0.182,0,0.333,0.021,0.486,0.051c0.081,0.012,0.167,0.025,0.239,0.025
		c0.435,0,0.68-0.26,0.843-0.75l0.068-0.201c-0.071-0.027-0.78-0.34-1.705-0.34c-1.473,0-2.25,0.946-2.25,1.924
		c0,0.494,0.154,0.854,0.397,1.135c0.312,0.361,0.757,0.6,1.174,0.803c0.605,0.297,1.152,0.518,1.152,0.957
		c0,0.393-0.402,0.615-0.944,0.615c-0.74,0-1.389-0.424-1.472-0.475l-0.607,1.139c0.109,0.063,0.891,0.561,2.181,0.561
		c1.375-0.002,2.414-0.789,2.414-2.002C60.421,12.371,59.456,11.924,58.675,11.545"/>
	<path clip-path="url(#SVGID_2_)" fill="#E31837" d="M64.05,12.109l2.491-3.057h-1.775l-1.987,2.637h-0.029V9.053h-1.464v6.475
		h0.087c0.633,0,1.388-0.293,1.388-1.352v-1.484h0.028l2.026,2.756h1.862L64.05,12.109z"/>
	<path clip-path="url(#SVGID_2_)" fill="#E31837" d="M66.624,2.12c-0.515,0.096-1.279,0.563-1.276,1.392
		c0.003,0.75,0.617,1.207,0.619,2.19c0.002,0.741-0.406,1.24-0.847,1.516c0.179-0.017,0.373-0.026,0.589-0.026
		c0.451-0.002,0.722,0.041,0.738,0.043l2.313-2.836C68.118,3.438,67.368,2.691,66.624,2.12"/>
	<path clip-path="url(#SVGID_2_)" fill="#E31837" d="M68.567,9.779c0.291-0.453,0.328-1.176,0.352-1.911
		c0.028-0.685,0.171-1.201,1.089-1.205c0.203,0,0.397,0.028,0.748,0.026c1.344-0.005,2.22-0.47,2.768-0.773
		c-1.115-0.711-2.744-1.437-4.764-1.518c-0.132,0.37-1.155,3.217-1.234,3.447c0.013,0.013,0.192,0.215,0.416,0.606
		C68.272,8.99,68.449,9.447,68.567,9.779"/>
	<path clip-path="url(#SVGID_2_)" fill="#F47725" d="M63.685,7.454c-0.117,0.001-0.176-0.077-0.191-0.212
		c-0.015-0.133-0.593-5.423-0.68-6.224c-0.013-0.118-0.041-0.331-0.041-0.408c0-0.123,0.08-0.188,0.174-0.188
		c0.274,0,1.768,0.35,3.352,1.461c-0.456,0.128-1.282,0.603-1.278,1.586c0.004,0.869,0.627,1.349,0.629,2.22
		C65.654,7.111,64.022,7.453,63.685,7.454"/>
	<path clip-path="url(#SVGID_2_)" fill="#F47725" d="M68.699,10.156c0.025,0.066,0.048,0.123,0.072,0.162
		c0.036,0.061,0.085,0.09,0.143,0.088c0.036,0,0.081-0.012,0.132-0.035c0.122-0.055,4.949-2.303,5.677-2.639
		c0.105-0.05,0.307-0.139,0.373-0.178c0.068-0.041,0.099-0.097,0.099-0.153c0-0.034-0.01-0.065-0.028-0.096
		c-0.091-0.147-0.559-0.643-1.339-1.185c-0.62,0.341-1.588,0.869-3.028,0.874c-0.353,0.001-0.434-0.021-0.674-0.021
		c-0.703,0.004-0.878,0.304-0.903,0.92c-0.005,0.116-0.006,0.272-0.014,0.445C69.186,8.888,69.119,9.648,68.699,10.156"/>
	<rect x="40.354" y="13.582" clip-path="url(#SVGID_2_)" fill="#231F20" width="9.474" height="0.967"/>
	<path clip-path="url(#SVGID_2_)" fill="#231F20" d="M45.069,7.537c0,0,2.161,2.895,2.522,3.319
		c0.357,0.424,0.806,0.342,0.806,0.342h1.019l-3.472-4.894H44.37l-3.655,4.864h1.729L45.069,7.537z"/>
	<path clip-path="url(#SVGID_2_)" fill="#231F20" d="M23.063,6.298c-0.222,0.005-0.437,0.148-0.577,0.409l-2.282,6.176h1.465
		l1.816-4.941l1.607,4.535c0.108,0.264,0.36,0.404,0.58,0.406h1.056l-2.505-6.585H23.063z"/>
	<path clip-path="url(#SVGID_2_)" fill="#231F20" d="M27.695,6.298v2.51h-1.347v0.991h1.347v5.762h0.375
		c0.574,0,1.04-0.463,1.04-1.037V6.298H27.695z"/>
	<path clip-path="url(#SVGID_2_)" fill="#231F20" d="M37.606,15.449h0.372c0.566,0,1.026-0.459,1.026-1.025V6.298h-1.398V15.449z"/>
	<path clip-path="url(#SVGID_2_)" fill="#231F20" d="M34.78,12.883c0.573,0,1.038-0.463,1.038-1.037V6.298h-1.289V8.82h-2.287V6.298
		h-1.289v5.548c0,0.574,0.465,1.037,1.039,1.037H34.78z M32.241,9.813h2.287v2.082h-2.287V9.813z"/>
	<path clip-path="url(#SVGID_2_)" fill="#231F20" d="M14.869,8.951c0-1.669-0.988-2.613-2.43-2.613
		c-1.622,0-2.428,1.172-2.428,2.613c0,1.448,0.804,2.62,2.428,2.62C13.88,11.57,14.869,10.625,14.869,8.951 M11.348,8.951
		c0-0.892,0.419-1.615,1.092-1.615c0.671,0,1.092,0.723,1.092,1.615c0,0.897-0.42,1.62-1.092,1.62
		C11.768,10.57,11.348,9.848,11.348,8.951"/>
	<path clip-path="url(#SVGID_2_)" fill="#231F20" d="M13.261,14.371v-1.74h-1.384v1.691c0,0.559,0.457,1.014,1.016,1.014h6.121
		v-0.965H13.261z"/>
	<polygon clip-path="url(#SVGID_2_)" fill="#231F20" points="16.888,9.404 17.565,9.404 17.565,12.725 18.812,12.725 18.812,6.298 
		17.565,6.298 17.565,8.422 16.888,8.422 16.888,6.298 15.63,6.298 15.63,12.725 16.888,12.725 	"/>
	<path clip-path="url(#SVGID_2_)" fill="#231F20" d="M5.327,10.791v-0.406c1.365-0.182,2.344-0.887,2.344-1.847
		c0-0.368-0.147-0.696-0.4-0.977h1.101V6.583H5.368V5.908H3.87v0.674H0.865v0.979h1.1c-0.253,0.28-0.399,0.607-0.399,0.977
		c0,0.968,0.979,1.667,2.343,1.849v0.404H0v0.992h9.236v-0.992H5.327z M2.99,8.538c0-0.617,0.934-0.904,1.629-0.904
		c0.693,0,1.628,0.329,1.628,0.904c0,0.577-0.87,0.905-1.628,0.905C3.859,9.443,2.99,9.156,2.99,8.538"/>
	<path clip-path="url(#SVGID_2_)" fill="#231F20" d="M1.135,14.52c0,0.576,0.467,1.041,1.041,1.041H7.06
		c0.576,0,1.044-0.465,1.044-1.041v-2.268H1.135V14.52z M6.685,14.568H2.552v-1.326h4.133V14.568z"/>
	<rect x="53.103" y="6.298" clip-path="url(#SVGID_2_)" fill="#231F20" width="0.141" height="9.159"/>
</g>
</svg>
