<?xml version="1.0" encoding="utf-8"?>
<!-- Generator: Adobe Illustrator 16.0.0, SVG Export Plug-In . SVG Version: 6.00 Build 0)  -->
<!DOCTYPE svg PUBLIC "-//W3C//DTD SVG 1.1//EN" "http://www.w3.org/Graphics/SVG/1.1/DTD/svg11.dtd">
<svg version="1.1" id="Layer_1" xmlns="http://www.w3.org/2000/svg" xmlns:xlink="http://www.w3.org/1999/xlink" x="0px" y="0px"
	 width="20px" height="20px" viewBox="0 0 20 20" enable-background="new 0 0 20 20" xml:space="preserve">
<path fill="#FFFFFF" d="M18.582,10.163c0,1.722-1.396,3.118-3.118,3.118s-3.118-1.396-3.118-3.118c0-1.722,1.396-3.118,3.118-3.118
	S18.582,8.441,18.582,10.163"/>
<rect x="1.195" y="1.086" fill="#FFFFFF" width="14.69" height="17.791"/>
<path fill="#464545" d="M15.43,20H1.338c-0.715,0-1.293-0.61-1.293-1.362V1.361C0.045,0.609,0.624,0,1.338,0H15.43
	c0.714,0,1.294,0.609,1.294,1.361v5.003c0,0.337-0.261,0.611-0.581,0.611h-0.264c-0.32,0-0.58-0.274-0.58-0.611V2.111
	c0-0.338-0.26-0.611-0.581-0.611H2.05C1.729,1.5,1.47,1.773,1.47,2.111v15.776c0,0.338,0.26,0.612,0.581,0.612h12.667
	c0.321,0,0.581-0.274,0.581-0.612V13.55c0-0.338,0.26-0.611,0.58-0.611h0.264c0.32,0,0.581,0.273,0.581,0.611v5.088
	C16.724,19.39,16.144,20,15.43,20"/>
<path fill="#464545" d="M10.149,6.767H4.443c-0.303,0-0.549-0.246-0.549-0.549V6.07c0-0.304,0.246-0.549,0.549-0.549h5.706
	c0.303,0,0.549,0.246,0.549,0.549v0.148C10.698,6.521,10.452,6.767,10.149,6.767"/>
<path fill="#464545" d="M8.83,9.645H4.443c-0.304,0-0.55-0.246-0.55-0.549V8.947c0-0.303,0.246-0.549,0.55-0.549H8.83
	c0.303,0,0.549,0.246,0.549,0.549v0.148C9.379,9.399,9.133,9.645,8.83,9.645"/>
<path fill="#464545" d="M8.714,12.522H4.443c-0.303,0-0.549-0.245-0.549-0.549v-0.147c0-0.304,0.246-0.55,0.549-0.55h4.271
	c0.303,0,0.549,0.246,0.549,0.55v0.147C9.264,12.277,9.018,12.522,8.714,12.522"/>
<path fill="#464545" d="M10.149,15.399H4.443c-0.303,0-0.549-0.246-0.549-0.549v-0.148c0-0.303,0.246-0.549,0.549-0.549h5.706
	c0.303,0,0.549,0.246,0.549,0.549v0.148C10.698,15.153,10.452,15.399,10.149,15.399"/>
<path fill="#FF7A00" d="M19.245,15.774c-0.211,0-0.421-0.093-0.561-0.272l-1.878-2.388c-0.217-0.275-0.23-0.675,0.002-0.937
	c0.306-0.342,0.827-0.313,1.097,0.029l1.883,2.394c0.199,0.253,0.23,0.617,0.038,0.876C19.677,15.678,19.46,15.774,19.245,15.774"/>
<path fill="#FF7A00" d="M15.88,13.986c-2.632,0.335-4.856-1.889-4.522-4.521c0.229-1.795,1.677-3.244,3.471-3.473
	c2.635-0.335,4.859,1.89,4.523,4.524C19.123,12.311,17.675,13.759,15.88,13.986 M15.798,7.419c-1.781-0.294-3.307,1.231-3.012,3.012
	c0.179,1.078,1.049,1.948,2.127,2.127c1.78,0.295,3.305-1.23,3.012-3.011C17.746,8.469,16.877,7.598,15.798,7.419"/>
</svg>
