<?xml version="1.0" encoding="utf-8"?>
<!-- Generator: Adobe Illustrator 16.0.0, SVG Export Plug-In . SVG Version: 6.00 Build 0)  -->
<!DOCTYPE svg PUBLIC "-//W3C//DTD SVG 1.1//EN" "http://www.w3.org/Graphics/SVG/1.1/DTD/svg11.dtd">
<svg version="1.1" id="Layer_1" xmlns="http://www.w3.org/2000/svg" xmlns:xlink="http://www.w3.org/1999/xlink" x="0px" y="0px"
	 width="20px" height="20px" viewBox="0 0 20 20" enable-background="new 0 0 20 20" xml:space="preserve">
<path fill="#464545" d="M19.305,17.557c-0.383,0-0.694-0.311-0.694-0.694V1.892c0-0.183-0.154-0.337-0.337-0.337H4.291
	c-0.183,0-0.337,0.155-0.337,0.337v14.4c0,0.384-0.312,0.695-0.695,0.695s-0.694-0.312-0.694-0.695v-14.4
	c0-0.952,0.774-1.727,1.727-1.727h13.982c0.951,0,1.726,0.775,1.726,1.727v14.97C19.999,17.246,19.688,17.557,19.305,17.557"/>
<path fill="#464545" d="M17.37,19.834c-0.001,0.001-0.002,0.001-0.004,0H2.733c-0.718,0-1.343-0.249-1.809-0.72
	C0.006,18.185-0.002,16.726,0,16.562c0.004-0.38,0.314-0.686,0.694-0.686h14.271c0.192,0,0.377,0.08,0.509,0.221
	c0.131,0.143,0.197,0.331,0.184,0.523c0,0.005-0.045,0.86,0.447,1.383c0.28,0.298,0.693,0.442,1.262,0.442h0.003h0.001
	c0.384,0,0.695,0.312,0.695,0.694C18.065,19.523,17.754,19.834,17.37,19.834 M1.479,17.265c0.076,0.311,0.21,0.648,0.437,0.876
	c0.204,0.205,0.471,0.305,0.817,0.305h11.982c-0.236-0.408-0.35-0.833-0.403-1.181H1.479z"/>
<path fill="#464545" d="M17.155,19.834c-1.035,0-1.828-0.317-2.355-0.945c-0.824-0.98-0.624-2.291-0.599-2.438
	c0.066-0.378,0.423-0.631,0.804-0.565c0.376,0.066,0.629,0.424,0.565,0.8c-0.004,0.023-0.122,0.823,0.297,1.314
	c0.252,0.296,0.686,0.445,1.288,0.445c0.504,0,0.873-0.114,1.096-0.339c0.369-0.372,0.362-1.062,0.359-1.432l-0.001-0.104V1.692
	c0-0.384,0.312-0.694,0.694-0.694c0.384,0,0.694,0.311,0.694,0.694l0.001,14.97c0.005,0.532,0.015,1.639-0.762,2.422
	C18.744,19.582,18.044,19.834,17.155,19.834"/>
<path fill="#EA0530" d="M15.252,6.394H7.336c-0.383,0-0.694-0.311-0.694-0.694c0-0.383,0.311-0.694,0.694-0.694h7.916
	c0.384,0,0.694,0.311,0.694,0.694C15.946,6.083,15.636,6.394,15.252,6.394"/>
<path fill="#EA0530" d="M15.252,9.632H7.336c-0.383,0-0.694-0.311-0.694-0.694c0-0.384,0.311-0.695,0.694-0.695h7.916
	c0.384,0,0.694,0.311,0.694,0.695C15.946,9.321,15.636,9.632,15.252,9.632"/>
<path fill="#EA0530" d="M15.252,12.869H7.336c-0.383,0-0.694-0.311-0.694-0.694c0-0.383,0.311-0.694,0.694-0.694h7.916
	c0.384,0,0.694,0.312,0.694,0.694C15.946,12.559,15.636,12.869,15.252,12.869"/>
</svg>
