<?xml version="1.0" encoding="utf-8"?>
<!-- Generator: Adobe Illustrator 16.0.0, SVG Export Plug-In . SVG Version: 6.00 Build 0)  -->
<!DOCTYPE svg PUBLIC "-//W3C//DTD SVG 1.1//EN" "http://www.w3.org/Graphics/SVG/1.1/DTD/svg11.dtd">
<svg version="1.1" id="Layer_1" xmlns="http://www.w3.org/2000/svg" xmlns:xlink="http://www.w3.org/1999/xlink" x="0px" y="0px"
	 width="20px" height="20px" viewBox="0 0 20 20" enable-background="new 0 0 20 20" xml:space="preserve">
<path fill="#FFFFFF" d="M1.763,8.195C2.157,7.746,2.581,7.323,3.031,6.93c1.484-1.297,3.252-2.274,4.572-3.737
	c0.61-0.677,1.166-1.485,2.025-1.788c0.181-0.063,0.376-0.103,0.564-0.068c0.335,0.061,0.583,0.334,0.834,0.565
	c0.701,0.646,1.584,1.052,2.384,1.57c1.674,1.085,2.964,2.655,4.226,4.2c0.119,0.146,0.242,0.3,0.279,0.484
	c0.066,0.329-0.155,0.643-0.387,0.886c-0.542,0.571-1.199,1.018-1.851,1.46c-1.411,0.957-2.822,1.914-4.232,2.871
	c-0.438,0.296-0.896,0.602-1.419,0.675c-0.876,0.123-1.691-0.421-2.409-0.938c-1.988-1.433-3.977-2.865-5.965-4.298
	c-0.17-0.123-0.356-0.271-0.377-0.48C1.238,7.952,1.731,7.774,2.111,7.736"/>
<path fill="#464545" d="M0.705,9.012c-0.189,0-0.378-0.079-0.512-0.233c-0.246-0.282-0.215-0.71,0.067-0.956l8.454-7.341
	c0.742-0.644,1.904-0.642,2.644,0.005l8.383,7.337c0.282,0.247,0.311,0.675,0.063,0.956c-0.246,0.282-0.675,0.31-0.956,0.064
	l-8.383-7.337C10.241,1.31,9.829,1.309,9.603,1.506L1.149,8.847C1.021,8.958,0.863,9.012,0.705,9.012z"/>
<polyline fill="#FFFFFF" points="16.007,9.942 16.007,2.856 3.994,2.856 3.994,9.942 "/>
<path fill="#464545" d="M16.007,10.531c-0.325,0-0.59-0.265-0.59-0.589V3.445H4.583v6.497c0,0.325-0.264,0.589-0.589,0.589
	c-0.326,0-0.589-0.265-0.589-0.589V2.856c0-0.325,0.264-0.589,0.589-0.589h12.013c0.325,0,0.589,0.264,0.589,0.589v7.086
	C16.596,10.267,16.332,10.531,16.007,10.531z"/>
<path fill="#EA0530" d="M13.363,6.809H6.799c-0.283,0-0.513-0.229-0.513-0.513c0-0.284,0.23-0.513,0.513-0.513h6.564
	c0.283,0,0.514,0.229,0.514,0.513C13.877,6.58,13.646,6.809,13.363,6.809z"/>
<path fill="#EA0530" d="M13.363,9.134H6.799c-0.283,0-0.513-0.23-0.513-0.513s0.23-0.513,0.513-0.513h6.564
	c0.283,0,0.514,0.229,0.514,0.513S13.646,9.134,13.363,9.134z"/>
<path fill="#FFFFFF" d="M1.568,8.353c-0.475-0.354-0.863-0.16-0.863,0.433v9.46c0,0.593,0.485,1.078,1.077,1.078h16.436
	c0.593,0,1.077-0.485,1.077-1.078v-9.46c0-0.592-0.389-0.787-0.863-0.433l-7.569,5.648c-0.474,0.354-1.251,0.354-1.726,0
	L1.568,8.353z"/>
<path fill="#464545" d="M18.218,20H1.782c-0.968,0-1.755-0.787-1.755-1.755v-9.46c0-0.884,0.57-1.288,1.1-1.288
	c0.281,0,0.573,0.108,0.846,0.312l7.568,5.648c0.22,0.164,0.695,0.164,0.916,0l7.569-5.648c0.277-0.207,0.562-0.312,0.846-0.312
	c0.53,0,1.101,0.403,1.101,1.288v9.46C19.973,19.213,19.186,20,18.218,20z M1.382,9.06v9.186c0,0.217,0.184,0.4,0.4,0.4h16.436
	c0.217,0,0.399-0.184,0.399-0.4V9.06l-7.349,5.484c-0.346,0.258-0.796,0.4-1.269,0.4s-0.923-0.142-1.269-0.4L1.382,9.06z"/>
</svg>
