<?xml version="1.0" encoding="utf-8"?>
<!-- Generator: Adobe Illustrator 16.0.0, SVG Export Plug-In . SVG Version: 6.00 Build 0)  -->
<!DOCTYPE svg PUBLIC "-//W3C//DTD SVG 1.1//EN" "http://www.w3.org/Graphics/SVG/1.1/DTD/svg11.dtd">
<svg version="1.1" xmlns="http://www.w3.org/2000/svg" xmlns:xlink="http://www.w3.org/1999/xlink" x="0px" y="0px" width="20px"
	 height="20px" viewBox="0 0 20 20" enable-background="new 0 0 20 20" xml:space="preserve">
<g id="Layer_2">
	<path fill="#FFFFFF" d="M14.197,1.176c-0.115,0.066-5.459,3.846-5.459,3.846L2.555,8.098c0,0-0.376,0.129-0.565,2.544l-0.282,6.055
		l0.282,0.16l7.751-0.129c0,0,0.753-0.188,1.286-1.41l2.479-5.158l4.164-5.294c0,0,0.23-0.785-0.461-1.287l-2.541-2.403
		C14.668,1.175,14.521,0.987,14.197,1.176"/>
</g>
<g id="Layer_1">
	<path fill="#FF7A00" d="M17.094,18.588H1.841c-0.338,0-0.613,0.316-0.613,0.706C1.228,19.686,1.502,20,1.841,20h15.253
		c0.338,0,0.613-0.314,0.613-0.706C17.707,18.904,17.432,18.588,17.094,18.588"/>
	<path fill="#444444" d="M18.436,3.772l-1.931-1.93L15,0.336c-0.447-0.448-1.174-0.448-1.622,0L8.229,4.488L2.816,7.247
		c-0.78,0.397-1.284,1.187-1.315,2.062l-0.272,7.53c-0.003,0.077,0.01,0.151,0.033,0.224l0,0v0.002
		c0.015,0.047,0.033,0.092,0.058,0.135c0.015,0.027,0.035,0.052,0.054,0.076c0.009,0.012,0.016,0.023,0.025,0.035
		c0,0,0-0.002,0.001-0.002c0.009,0.012,0.016,0.024,0.026,0.035c0.134,0.135,0.318,0.207,0.508,0.201l7.53-0.271
		c0.875-0.032,1.665-0.535,2.062-1.315l2.759-5.413l4.151-5.149C18.884,4.946,18.884,4.22,18.436,3.772 M6.592,12.18
		c-0.054-0.055-0.101-0.113-0.141-0.179c-0.001-0.002-0.002-0.005-0.004-0.007c-0.038-0.063-0.07-0.129-0.095-0.197
		c-0.04-0.111-0.064-0.229-0.064-0.352c0-0.277,0.108-0.539,0.304-0.735c0.196-0.196,0.457-0.304,0.735-0.304
		c0.11,0,0.216,0.021,0.319,0.055c0.072,0.023,0.142,0.055,0.208,0.094c0.006,0.004,0.012,0.006,0.018,0.01
		c0.068,0.039,0.132,0.088,0.189,0.146l0,0c0.196,0.196,0.304,0.458,0.304,0.733c0,0.279-0.108,0.539-0.304,0.736
		c-0.196,0.195-0.457,0.305-0.734,0.305c-0.235,0-0.455-0.082-0.637-0.226C6.657,12.234,6.623,12.21,6.592,12.18 M10.312,15.338
		c-0.172,0.339-0.516,0.559-0.897,0.572l-5.799,0.209l2.565-2.564c0.348,0.189,0.739,0.291,1.146,0.291
		c0.641,0,1.244-0.25,1.698-0.703c0.453-0.453,0.703-1.057,0.703-1.697c0-0.571-0.2-1.112-0.564-1.544
		C9.12,9.848,9.074,9.796,9.025,9.747l0,0c0,0-0.001,0-0.001-0.001C8.964,9.687,8.902,9.632,8.839,9.58
		C8.837,9.579,8.835,9.578,8.833,9.576C8.771,9.525,8.705,9.478,8.638,9.434l0,0l0,0C8.251,9.181,7.8,9.044,7.327,9.044
		c-0.641,0-1.245,0.25-1.698,0.703c-0.454,0.453-0.703,1.058-0.703,1.698c0,0.406,0.101,0.799,0.291,1.146l-2.565,2.563l0.209-5.798
		C2.875,8.977,3.095,8.633,3.434,8.46l5.068-2.582l2.381,2.382l2.012,2.01L10.312,15.338z M13.727,9.175l-2.459-2.459l-1.67-1.67
		l4.262-3.266c0.183-0.182,0.477-0.182,0.658,0l1.336,1.336l1.138,1.136c0.182,0.182,0.182,0.477,0,0.659L13.727,9.175z"/>
</g>
</svg>
