<?xml version="1.0" encoding="utf-8"?>
<!-- Generator: Adobe Illustrator 16.0.0, SVG Export Plug-In . SVG Version: 6.00 Build 0)  -->
<!DOCTYPE svg PUBLIC "-//W3C//DTD SVG 1.1//EN" "http://www.w3.org/Graphics/SVG/1.1/DTD/svg11.dtd">
<svg version="1.1" id="Layer_1" xmlns="http://www.w3.org/2000/svg" xmlns:xlink="http://www.w3.org/1999/xlink" x="0px" y="0px"
	 width="20px" height="20px" viewBox="0 0 20 20" enable-background="new 0 0 20 20" xml:space="preserve">
<path fill="#464545" d="M17.074,5.147H1.468C0.659,5.147,0,5.806,0,6.616V16.71c0,0.81,0.659,1.468,1.468,1.468h15.606
	c0.811,0,1.469-0.658,1.469-1.468V6.616C18.543,5.806,17.885,5.147,17.074,5.147z M1.189,7.077l5.437,4.552l-5.437,4.588V7.077z
	 M7.362,12.245l0.274,0.229c0.459,0.385,1.068,0.577,1.677,0.577c0.587,0,1.174-0.18,1.625-0.54l0.503-0.403l5.403,4.88H1.74
	L7.362,12.245z M12.189,11.51l5.164-4.134v8.799L12.189,11.51z M17.125,6.348l-6.777,5.426c-0.576,0.461-1.54,0.449-2.105-0.023
	L1.778,6.337h15.296C17.093,6.337,17.108,6.344,17.125,6.348z"/>
<path fill="#FFFFFF" d="M19.051,5.742c0,1.903-1.543,3.447-3.446,3.447s-3.447-1.543-3.447-3.447s1.544-3.446,3.447-3.446
	S19.051,3.839,19.051,5.742"/>
<path fill="#464545" d="M15.604,9.662c-2.161,0-3.92-1.758-3.92-3.919s1.759-3.919,3.92-3.919s3.919,1.758,3.919,3.919
	S17.766,9.662,15.604,9.662z M15.604,2.769c-1.641,0-2.975,1.334-2.975,2.974s1.334,2.974,2.975,2.974
	c1.64,0,2.974-1.334,2.974-2.974S17.244,2.769,15.604,2.769z"/>
<path fill="#EA0530" d="M15.821,6.824c-0.12,0-0.236-0.045-0.324-0.128l-1.646-1.545c-0.19-0.179-0.199-0.478-0.021-0.668
	c0.179-0.19,0.478-0.2,0.668-0.021l1.297,1.217l3.384-3.702c0.176-0.192,0.475-0.207,0.668-0.03
	c0.192,0.176,0.206,0.475,0.029,0.668L16.17,6.67c-0.086,0.093-0.205,0.149-0.331,0.154C15.833,6.824,15.827,6.824,15.821,6.824z"/>
</svg>
