<?xml version="1.0" encoding="utf-8"?>
<!-- Generator: Adobe Illustrator 16.0.0, SVG Export Plug-In . SVG Version: 6.00 Build 0)  -->
<!DOCTYPE svg PUBLIC "-//W3C//DTD SVG 1.1//EN" "http://www.w3.org/Graphics/SVG/1.1/DTD/svg11.dtd">
<svg version="1.1" id="Layer_1" xmlns="http://www.w3.org/2000/svg" xmlns:xlink="http://www.w3.org/1999/xlink" x="0px" y="0px"
	 width="20px" height="20px" viewBox="0 0 20 20" enable-background="new 0 0 20 20" xml:space="preserve">
<path fill="#464545" d="M18.365,10.642h-1.158c-0.354,0-0.643-0.287-0.643-0.642c0-0.355,0.288-0.643,0.643-0.643h1.158
	c0.354,0,0.642,0.287,0.642,0.643C19.007,10.354,18.72,10.642,18.365,10.642"/>
<path fill="#464545" d="M10,20C4.486,20,0,15.514,0,10C0,4.485,4.486,0,10,0s10,4.485,10,10C20,15.514,15.514,20,10,20 M10,1.284
	c-4.806,0-8.715,3.91-8.715,8.716S5.194,18.715,10,18.715s8.715-3.909,8.715-8.715S14.806,1.284,10,1.284"/>
<path fill="#464545" d="M10,2.612c-0.354,0-0.642-0.288-0.642-0.643V0.68c0-0.355,0.287-0.643,0.642-0.643s0.643,0.287,0.643,0.643
	v1.29C10.643,2.324,10.354,2.612,10,2.612"/>
<path fill="#464545" d="M10,19.962c-0.354,0-0.642-0.288-0.642-0.643v-1.29c0-0.354,0.287-0.642,0.642-0.642
	s0.643,0.287,0.643,0.642v1.29C10.643,19.674,10.354,19.962,10,19.962"/>
<path fill="#464545" d="M1.971,10.642h-1.29c-0.355,0-0.643-0.287-0.643-0.642c0-0.355,0.287-0.643,0.643-0.643h1.29
	c0.354,0,0.643,0.287,0.643,0.643C2.613,10.354,2.325,10.642,1.971,10.642"/>
<path fill="#EA0530" d="M14.947,10.642H10c-0.354,0-0.642-0.287-0.642-0.642c0-0.355,0.287-0.643,0.642-0.643h4.947
	c0.354,0,0.642,0.287,0.642,0.643C15.589,10.354,15.302,10.642,14.947,10.642"/>
<path fill="#EA0530" d="M10,10.51c-0.354,0-0.642-0.287-0.642-0.642V4.272C9.358,3.918,9.646,3.63,10,3.63s0.643,0.288,0.643,0.643
	v5.596C10.643,10.223,10.354,10.51,10,10.51"/>
</svg>
