<?xml version="1.0" encoding="utf-8"?>
<!-- Generator: Adobe Illustrator 16.0.0, SVG Export Plug-In . SVG Version: 6.00 Build 0)  -->
<!DOCTYPE svg PUBLIC "-//W3C//DTD SVG 1.1//EN" "http://www.w3.org/Graphics/SVG/1.1/DTD/svg11.dtd">
<svg version="1.1" id="Layer_1" xmlns="http://www.w3.org/2000/svg" xmlns:xlink="http://www.w3.org/1999/xlink" x="0px" y="0px"
	 width="20px" height="20px" viewBox="0 0 20 20" enable-background="new 0 0 20 20" xml:space="preserve">
<path fill="#464545" d="M18.1,16.602H1.901c-0.324,0-0.586-0.264-0.586-0.586c0-0.324,0.262-0.586,0.586-0.586H18.1
	c0.324,0,0.586,0.262,0.586,0.586C18.686,16.338,18.424,16.602,18.1,16.602z"/>
<path fill="#464545" d="M11.989,12.588c-0.02,0-0.04,0-0.061-0.004c-0.157-0.016-0.302-0.096-0.399-0.221l-4.874-6.21l-4.363,3.919
	c-0.24,0.217-0.611,0.197-0.827-0.044C1.249,9.788,1.269,9.417,1.509,9.201l4.829-4.337c0.121-0.108,0.281-0.162,0.442-0.148
	c0.162,0.014,0.31,0.095,0.41,0.222l4.886,6.227l5.646-4.736c0.247-0.208,0.617-0.175,0.825,0.072
	c0.208,0.248,0.176,0.618-0.072,0.825l-6.11,5.125C12.26,12.539,12.127,12.588,11.989,12.588z"/>
<path fill="#FFFFFF" d="M13.304,12.002c0,0.727-0.588,1.314-1.314,1.314s-1.314-0.588-1.314-1.314c0-0.725,0.588-1.314,1.314-1.314
	S13.304,11.277,13.304,12.002"/>
<path fill="#EA0530" d="M11.989,13.902c-1.048,0-1.9-0.852-1.9-1.9c0-1.047,0.853-1.9,1.9-1.9s1.9,0.853,1.9,1.9
	C13.89,13.051,13.037,13.902,11.989,13.902z M11.989,11.273c-0.401,0-0.729,0.328-0.729,0.729c0,0.402,0.327,0.729,0.729,0.729
	c0.402,0,0.729-0.326,0.729-0.729C12.719,11.602,12.392,11.273,11.989,11.273z"/>
<path fill="#FFFFFF" d="M3.215,9.637c0,0.726-0.588,1.314-1.314,1.314c-0.727,0-1.315-0.588-1.315-1.314
	c0-0.725,0.588-1.314,1.315-1.314C2.627,8.322,3.215,8.912,3.215,9.637"/>
<path fill="#EA0530" d="M1.901,11.537C0.853,11.537,0,10.685,0,9.637c0-1.048,0.853-1.9,1.901-1.9s1.9,0.853,1.9,1.9
	C3.801,10.685,2.949,11.537,1.901,11.537z M1.901,8.908c-0.402,0-0.729,0.327-0.729,0.729s0.327,0.729,0.729,0.729
	s0.729-0.327,0.729-0.729S2.303,8.908,1.901,8.908z"/>
<path fill="#FFFFFF" d="M8.044,5.299c0,0.725-0.588,1.314-1.314,1.314S5.416,6.024,5.416,5.299c0-0.727,0.588-1.315,1.314-1.315
	S8.044,4.572,8.044,5.299"/>
<path fill="#EA0530" d="M6.73,7.2c-1.048,0-1.9-0.853-1.9-1.9s0.853-1.9,1.9-1.9s1.9,0.853,1.9,1.9S7.778,7.2,6.73,7.2z M6.73,4.57
	c-0.402,0-0.729,0.327-0.729,0.729S6.328,6.028,6.73,6.028s0.729-0.327,0.729-0.729S7.132,4.57,6.73,4.57z"/>
<path fill="#FFFFFF" d="M19.414,6.877c0,0.725-0.588,1.314-1.314,1.314c-0.726,0-1.313-0.589-1.313-1.314
	c0-0.727,0.588-1.314,1.313-1.314C18.826,5.563,19.414,6.15,19.414,6.877"/>
<path fill="#EA0530" d="M18.1,8.777c-1.047,0-1.899-0.853-1.899-1.9s0.853-1.9,1.899-1.9c1.048,0,1.9,0.853,1.9,1.9
	S19.147,8.777,18.1,8.777z M18.1,6.148c-0.401,0-0.729,0.327-0.729,0.729s0.327,0.729,0.729,0.729c0.402,0,0.729-0.327,0.729-0.729
	S18.502,6.148,18.1,6.148z"/>
</svg>
