<?xml version="1.0" encoding="utf-8"?>
<!-- Generator: Adobe Illustrator 16.0.0, SVG Export Plug-In . SVG Version: 6.00 Build 0)  -->
<!DOCTYPE svg PUBLIC "-//W3C//DTD SVG 1.1//EN" "http://www.w3.org/Graphics/SVG/1.1/DTD/svg11.dtd">
<svg version="1.1" id="Layer_1" xmlns="http://www.w3.org/2000/svg" xmlns:xlink="http://www.w3.org/1999/xlink" x="0px" y="0px"
	 width="20px" height="20px" viewBox="0 0 20 20" enable-background="new 0 0 20 20" xml:space="preserve">
<g id="Layer_2">
	<rect x="2" y="1" fill="#FFFFFF" width="16" height="18"/>
</g>
<path fill="#464545" d="M16.989,20H3.01c-0.78,0-1.416-0.635-1.416-1.416V1.416C1.594,0.636,2.229,0,3.01,0h13.979
	c0.781,0,1.417,0.636,1.417,1.416v17.168C18.406,19.365,17.771,20,16.989,20 M3.01,1.322c-0.05,0-0.094,0.044-0.094,0.094v17.168
	c0,0.051,0.044,0.095,0.094,0.095h13.979c0.051,0,0.095-0.044,0.095-0.095V1.416c0-0.05-0.044-0.094-0.095-0.094H3.01z"/>
<path fill="#FF7A00" d="M9.899,14.456c-0.163,0-0.321-0.06-0.443-0.171L6.38,11.5c-0.271-0.245-0.291-0.663-0.046-0.934
	s0.663-0.292,0.934-0.046l2.536,2.297l3.891-5.225c0.218-0.293,0.632-0.354,0.925-0.136s0.354,0.632,0.135,0.925L10.43,14.19
	c-0.111,0.149-0.28,0.245-0.465,0.264C9.942,14.456,9.921,14.456,9.899,14.456"/>
<path fill="#464545" d="M10.139,3.581c-0.365,0-0.661-0.296-0.661-0.661V0.851c0-0.365,0.296-0.661,0.661-0.661
	s0.66,0.296,0.66,0.661V2.92C10.799,3.285,10.504,3.581,10.139,3.581"/>
<path fill="#464545" d="M6.053,3.581c-0.365,0-0.661-0.296-0.661-0.661V0.851c0-0.365,0.296-0.661,0.661-0.661
	c0.364,0,0.661,0.296,0.661,0.661V2.92C6.714,3.285,6.417,3.581,6.053,3.581"/>
<path fill="#464545" d="M14.225,3.581c-0.365,0-0.661-0.296-0.661-0.661V0.851c0-0.365,0.296-0.661,0.661-0.661
	c0.364,0,0.66,0.296,0.66,0.661V2.92C14.885,3.285,14.589,3.581,14.225,3.581"/>
<path fill="#464545" d="M7.082,3.745c0,0.568-0.461,1.029-1.029,1.029S5.023,4.313,5.023,3.745s0.461-1.03,1.029-1.03
	S7.082,3.177,7.082,3.745"/>
<path fill="#464545" d="M11.168,3.745c0,0.568-0.461,1.029-1.029,1.029S9.109,4.313,9.109,3.745s0.461-1.03,1.029-1.03
	S11.168,3.177,11.168,3.745"/>
<path fill="#464545" d="M15.254,3.745c0,0.568-0.461,1.029-1.03,1.029c-0.567,0-1.028-0.461-1.028-1.029s0.461-1.03,1.028-1.03
	C14.793,2.715,15.254,3.177,15.254,3.745"/>
</svg>
