<?xml version="1.0" encoding="utf-8"?>
<!-- Generator: Adobe Illustrator 16.0.0, SVG Export Plug-In . SVG Version: 6.00 Build 0)  -->
<!DOCTYPE svg PUBLIC "-//W3C//DTD SVG 1.1//EN" "http://www.w3.org/Graphics/SVG/1.1/DTD/svg11.dtd">
<svg version="1.1" id="Layer_1" xmlns="http://www.w3.org/2000/svg" xmlns:xlink="http://www.w3.org/1999/xlink" x="0px" y="0px"
	 width="20px" height="20px" viewBox="0 0 20 20" enable-background="new 0 0 20 20" xml:space="preserve">
<path fill="#464545" d="M18.441,19.72H1.558C0.699,19.72,0,19.021,0,18.161V1.839C0,0.979,0.699,0.28,1.558,0.28h16.883
	C19.301,0.28,20,0.979,20,1.839v16.322C20,19.021,19.301,19.72,18.441,19.72 M1.558,1.687c-0.082,0-0.151,0.069-0.151,0.152v16.322
	c0,0.082,0.069,0.151,0.151,0.151h16.883c0.082,0,0.151-0.069,0.151-0.151V1.839c0-0.083-0.069-0.152-0.151-0.152H1.558z"/>
<path fill="#464545" d="M5.07,2.892c0,0.355-0.289,0.645-0.645,0.645S3.78,3.247,3.78,2.892c0-0.356,0.289-0.646,0.645-0.646
	S5.07,2.535,5.07,2.892"/>
<path fill="#464545" d="M16.22,2.892c0,0.355-0.289,0.645-0.646,0.645c-0.355,0-0.645-0.289-0.645-0.645
	c0-0.356,0.289-0.646,0.645-0.646C15.931,2.246,16.22,2.535,16.22,2.892"/>
<path fill="#464545" d="M19.296,5.459H0.703C0.315,5.459,0,5.144,0,4.756c0-0.389,0.315-0.703,0.703-0.703h18.593
	C19.685,4.053,20,4.367,20,4.756C20,5.144,19.685,5.459,19.296,5.459"/>
<path fill="#464545" d="M5.556,10.552H3.703c-0.159,0-0.289-0.129-0.289-0.289V8.41c0-0.16,0.13-0.289,0.289-0.289h1.854
	c0.16,0,0.289,0.129,0.289,0.289v1.853C5.845,10.423,5.716,10.552,5.556,10.552"/>
<path fill="#464545" d="M5.556,15.463H3.703c-0.159,0-0.289-0.13-0.289-0.289V13.32c0-0.16,0.13-0.289,0.289-0.289h1.854
	c0.16,0,0.289,0.129,0.289,0.289v1.854C5.845,15.333,5.716,15.463,5.556,15.463"/>
<path fill="#464545" d="M10.927,10.552H9.073c-0.16,0-0.289-0.129-0.289-0.289V8.41c0-0.16,0.129-0.289,0.289-0.289h1.854
	c0.159,0,0.289,0.129,0.289,0.289v1.853C11.216,10.423,11.086,10.552,10.927,10.552"/>
<path fill="#EA0530" d="M10.927,15.463H9.073c-0.16,0-0.289-0.13-0.289-0.289V13.32c0-0.16,0.129-0.289,0.289-0.289h1.854
	c0.159,0,0.289,0.129,0.289,0.289v1.854C11.216,15.333,11.086,15.463,10.927,15.463"/>
<path fill="#EA0530" d="M16.297,10.552h-1.854c-0.159,0-0.289-0.129-0.289-0.289V8.41c0-0.16,0.13-0.289,0.289-0.289h1.854
	c0.159,0,0.289,0.129,0.289,0.289v1.853C16.586,10.423,16.456,10.552,16.297,10.552"/>
<path fill="#EA0530" d="M16.297,15.463h-1.854c-0.159,0-0.289-0.13-0.289-0.289V13.32c0-0.16,0.13-0.289,0.289-0.289h1.854
	c0.159,0,0.289,0.129,0.289,0.289v1.854C16.586,15.333,16.456,15.463,16.297,15.463"/>
</svg>
