<?xml version="1.0" encoding="utf-8"?>
<!-- Generator: Adobe Illustrator 16.0.0, SVG Export Plug-In . SVG Version: 6.00 Build 0)  -->
<!DOCTYPE svg PUBLIC "-//W3C//DTD SVG 1.1//EN" "http://www.w3.org/Graphics/SVG/1.1/DTD/svg11.dtd">
<svg version="1.1" id="Layer_1" xmlns="http://www.w3.org/2000/svg" xmlns:xlink="http://www.w3.org/1999/xlink" x="0px" y="0px"
	 width="60px" height="16px" viewBox="0 0 60 16" enable-background="new 0 0 60 16" xml:space="preserve">
<path fill="#CF0A2C" d="M44.147,0v16H40.9V9.364h-5.954V16H31.7V2.904C31.7,1.301,33.001,0,34.605,0h0.341v6.541H40.9V2.904
	C40.9,1.301,42.201,0,43.805,0H44.147z"/>
<path fill="#CF0A2C" d="M47.63,0h6.211c3.766,0,5.647,1.757,5.647,5.271c0,2.086-0.784,3.623-2.353,4.611L59.417,16h-3.553
	l-1.859-5.365h-3.129v2.439c0,1.615-1.309,2.926-2.925,2.926H47.63V0z M53.889,7.858c0.737,0,1.301-0.23,1.693-0.693
	c0.392-0.463,0.588-1.087,0.588-1.871s-0.203-1.4-0.61-1.847C55.15,3,54.578,2.776,53.841,2.776h-2.965v5.082H53.889z"/>
<path fill="#CF0A2C" d="M0.512,4.261l3.041-0.025c0.363,0,0.658,0.295,0.658,0.659c0.58-0.33,1.086-0.569,1.519-0.718
	C6.16,4.027,6.611,3.953,7.082,3.953c0.549,0,1.078,0.09,1.588,0.271S9.6,4.683,9.929,5.059c0.737-0.376,1.432-0.654,2.083-0.835
	c0.65-0.181,1.313-0.271,1.988-0.271c1.459,0,2.494,0.446,3.105,1.341c0.611,0.894,0.918,2.338,0.918,4.329V16H14.87V9.717
	c0-1.05-0.117-1.803-0.353-2.258s-0.675-0.683-1.318-0.683c-0.455,0-1.059,0.11-1.812,0.33l-0.353,0.117
	c0.063,1.051,0.094,1.945,0.094,2.682V16H7.976V9.952c0-0.847-0.043-1.49-0.129-1.929C7.761,7.584,7.596,7.267,7.353,7.07
	S6.744,6.776,6.259,6.776c-0.503,0-1.083,0.11-1.741,0.33L4.235,7.2V16H1.082V6.299c0-0.44-0.087-0.876-0.256-1.282L0.512,4.261z"/>
<rect x="21.702" y="6.53" fill="#CF0A2C" width="6.32" height="2.831"/>
</svg>
