<?xml version="1.0" encoding="utf-8"?>
<!-- Generator: Adobe Illustrator 16.0.0, SVG Export Plug-In . SVG Version: 6.00 Build 0)  -->
<!DOCTYPE svg PUBLIC "-//W3C//DTD SVG 1.1//EN" "http://www.w3.org/Graphics/SVG/1.1/DTD/svg11.dtd">
<svg version="1.1" xmlns="http://www.w3.org/2000/svg" xmlns:xlink="http://www.w3.org/1999/xlink" x="0px" y="0px" width="100px"
	 height="16px" viewBox="0 0 100 16" enable-background="new 0 0 100 16" xml:space="preserve">
<g id="Layer_2">
</g>
<g id="Layer_1">
	<path fill="#FFFFFF" d="M80.587,14.35v-0.895h1.793v-0.547h-3.571v-0.76h3.431v-0.548l-0.001-0.696
		c0-0.316-0.257-0.573-0.574-0.573h-3.578v0.547h3.371v0.723h-3.43v1.281c0,0.316,0.256,0.573,0.573,0.573h1.204v0.895h-2.177v0.547
		h5.136V14.35H80.587z"/>
	<path fill="#FFFFFF" d="M84.422,13.044h3.684v-0.548h-3.477v-1.62h3.38v-0.547h-3.587c-0.317,0-0.574,0.257-0.574,0.573v1.566
		C83.848,12.785,84.104,13.044,84.422,13.044"/>
	<rect x="83.427" y="14.349" fill="#FFFFFF" width="5.149" height="0.547"/>
	<path fill="#FFFFFF" d="M95.847,13.044h3.685v-0.548h-3.477v-1.62h3.379v-0.547h-3.587c-0.316,0-0.574,0.257-0.574,0.573v1.566
		C95.272,12.785,95.53,13.044,95.847,13.044"/>
	<rect x="94.851" y="14.349" fill="#FFFFFF" width="5.149" height="0.547"/>
	<polygon fill="#FFFFFF" points="92.861,11.915 93.266,11.915 93.266,13.966 93.97,13.966 93.97,10.33 93.266,10.33 93.266,11.368 
		92.861,11.368 92.861,10.33 92.158,10.33 92.158,13.966 92.861,13.966 	"/>
	<path fill="#FFFFFF" d="M90.83,14.897v-0.983h-0.781v0.956c0,0.317,0.258,0.574,0.574,0.574h3.462v-0.547H90.83z"/>
	<path fill="#FFFFFF" d="M91.155,13.455c0.315,0,0.573-0.257,0.573-0.573v-2.551h-0.713v1.037h-1.01v-1.037h-0.712v2.551
		c0,0.316,0.257,0.573,0.573,0.573H91.155z M90.006,11.915h1.01v0.993h-1.01V11.915z"/>
	<path fill="#FFFFFF" d="M72.729,13.455h3.082c0.315,0,0.573-0.257,0.573-0.573v-2.551h-0.781v1.025h-2.666v-1.025h-0.781v2.551
		C72.156,13.198,72.414,13.455,72.729,13.455 M75.604,12.908h-2.666v-1.005h2.666V12.908z"/>
	<rect x="71.655" y="14.351" fill="#FFFFFF" width="5.172" height="0.547"/>
	<path fill="#FFFFFF" d="M58.675,11.545c-0.538-0.252-0.979-0.456-0.979-0.868c0-0.313,0.251-0.542,0.749-0.542
		c0.182,0,0.333,0.021,0.486,0.05c0.081,0.013,0.167,0.024,0.239,0.024c0.435,0,0.68-0.258,0.843-0.749l0.068-0.201
		c-0.071-0.028-0.78-0.34-1.705-0.34c-1.473,0-2.25,0.944-2.25,1.925c0,0.493,0.154,0.852,0.397,1.133
		c0.312,0.362,0.757,0.601,1.173,0.803c0.606,0.299,1.153,0.519,1.153,0.959c0,0.391-0.402,0.614-0.944,0.614
		c-0.74,0-1.389-0.423-1.472-0.475l-0.607,1.14c0.109,0.062,0.891,0.561,2.181,0.561c1.375-0.002,2.414-0.79,2.414-2.002
		C60.421,12.369,59.456,11.923,58.675,11.545"/>
	<path fill="#FFFFFF" d="M64.05,12.108l2.491-3.057h-1.775l-1.987,2.637h-0.029V9.052h-1.464v6.474h0.087
		c0.633,0,1.388-0.293,1.388-1.35v-1.486h0.028l2.026,2.757h1.862L64.05,12.108z"/>
	<path fill="#FFFFFF" d="M66.624,2.119c-0.515,0.096-1.279,0.563-1.276,1.392c0.003,0.75,0.617,1.207,0.619,2.19
		c0.002,0.741-0.406,1.24-0.847,1.516c0.179-0.017,0.373-0.026,0.589-0.026c0.451-0.002,0.722,0.041,0.738,0.043l2.313-2.836
		C68.118,3.437,67.368,2.691,66.624,2.119"/>
	<path fill="#FFFFFF" d="M68.567,9.778c0.291-0.452,0.328-1.175,0.352-1.91c0.028-0.685,0.171-1.201,1.089-1.205
		c0.203,0,0.397,0.028,0.748,0.026c1.344-0.005,2.22-0.47,2.768-0.773c-1.115-0.711-2.744-1.437-4.764-1.518
		c-0.132,0.37-1.155,3.217-1.234,3.447c0.013,0.013,0.192,0.215,0.416,0.606C68.272,8.99,68.449,9.446,68.567,9.778"/>
	<path fill="#FFFFFF" d="M63.685,7.454c-0.117,0.001-0.176-0.077-0.191-0.212c-0.015-0.133-0.593-5.423-0.68-6.224
		C62.801,0.9,62.772,0.687,62.772,0.61c0-0.123,0.08-0.188,0.174-0.188c0.274,0,1.768,0.35,3.352,1.461
		c-0.456,0.128-1.282,0.603-1.278,1.586c0.004,0.869,0.626,1.349,0.629,2.22C65.654,7.111,64.022,7.453,63.685,7.454"/>
	<path fill="#FFFFFF" d="M68.699,10.156c0.025,0.066,0.048,0.121,0.072,0.16c0.036,0.063,0.085,0.091,0.143,0.09
		c0.036,0,0.081-0.012,0.132-0.036c0.122-0.056,4.949-2.302,5.677-2.639c0.105-0.05,0.307-0.139,0.373-0.178
		c0.068-0.041,0.099-0.097,0.099-0.153c0-0.034-0.01-0.065-0.028-0.096c-0.091-0.147-0.559-0.643-1.339-1.185
		c-0.62,0.341-1.588,0.869-3.028,0.874c-0.353,0.001-0.434-0.021-0.674-0.021c-0.703,0.004-0.878,0.304-0.903,0.92
		c-0.005,0.116-0.006,0.272-0.014,0.445C69.186,8.889,69.119,9.648,68.699,10.156"/>
	<rect x="40.354" y="13.58" fill="#FFFFFF" width="9.474" height="0.968"/>
	<path fill="#FFFFFF" d="M45.069,7.536c0,0,2.161,2.894,2.522,3.318c0.357,0.425,0.806,0.341,0.806,0.341h1.019l-3.472-4.892H44.37
		l-3.655,4.863h1.729L45.069,7.536z"/>
	<path fill="#FFFFFF" d="M23.063,6.297c-0.222,0.005-0.437,0.148-0.577,0.409l-2.282,6.175h1.465l1.816-4.941l1.607,4.535
		c0.108,0.264,0.36,0.404,0.58,0.406h1.056l-2.505-6.584H23.063z"/>
	<path fill="#FFFFFF" d="M27.695,6.297v2.509h-1.347v0.992h1.347v5.761h0.375c0.574,0,1.04-0.463,1.04-1.037V6.297H27.695z"/>
	<path fill="#FFFFFF" d="M37.606,15.448h0.372c0.566,0,1.026-0.459,1.026-1.026V6.297h-1.398V15.448z"/>
	<path fill="#FFFFFF" d="M34.78,12.883c0.573,0,1.038-0.464,1.038-1.039V6.297h-1.289v2.521h-2.287V6.297h-1.289v5.546
		c0,0.575,0.465,1.039,1.039,1.039H34.78z M32.241,9.813h2.287v2.082h-2.287V9.813z"/>
	<path fill="#FFFFFF" d="M14.869,8.951c0-1.67-0.988-2.614-2.43-2.614c-1.622,0-2.428,1.172-2.428,2.614
		c0,1.447,0.804,2.618,2.428,2.618C13.88,11.569,14.869,10.623,14.869,8.951 M11.348,8.951c0-0.893,0.419-1.616,1.092-1.616
		c0.671,0,1.092,0.723,1.092,1.616c0,0.896-0.42,1.618-1.092,1.618C11.768,10.569,11.348,9.847,11.348,8.951"/>
	<path fill="#FFFFFF" d="M13.261,14.369v-1.74h-1.384v1.691c0,0.56,0.457,1.015,1.016,1.015h6.121v-0.966H13.261z"/>
	<polygon fill="#FFFFFF" points="16.888,9.403 17.565,9.403 17.565,12.724 18.812,12.724 18.812,6.297 17.565,6.297 17.565,8.421 
		16.888,8.421 16.888,6.297 15.63,6.297 15.63,12.724 16.888,12.724 	"/>
	<path fill="#FFFFFF" d="M5.327,10.791v-0.407c1.365-0.181,2.344-0.887,2.344-1.846c0-0.368-0.147-0.696-0.4-0.977h1.101V6.582
		H5.368V5.908H3.87v0.674H0.865v0.979h1.1c-0.253,0.28-0.399,0.607-0.399,0.977c0,0.966,0.979,1.667,2.343,1.848v0.405H0v0.991
		h9.236v-0.991H5.327z M2.99,8.538c0-0.617,0.934-0.904,1.629-0.904c0.693,0,1.628,0.329,1.628,0.904
		c0,0.578-0.87,0.905-1.628,0.905C3.859,9.442,2.99,9.154,2.99,8.538"/>
	<path fill="#FFFFFF" d="M1.135,14.519c0,0.576,0.467,1.041,1.041,1.041H7.06c0.576,0,1.044-0.465,1.044-1.041V12.25H1.135V14.519z
		 M6.685,14.567H2.552v-1.326h4.133V14.567z"/>
	<rect x="53.103" y="6.297" fill="#FFFFFF" width="0.141" height="9.159"/>
</g>
</svg>
